<svg width="300" height="44" viewBox="0 0 300 44" fill="none" xmlns="http://www.w3.org/2000/svg">
<g clip-path="url(#clip0_87_1350)">
<path d="M32.1644 22.4329H25.0671C24.9375 21.5147 24.6728 20.6991 24.2731 19.9861C23.8735 19.2623 23.3603 18.6466 22.7338 18.1389C22.1073 17.6312 21.3835 17.2423 20.5625 16.9722C19.7523 16.7022 18.8719 16.5671 17.9213 16.5671C16.2037 16.5671 14.7076 16.9938 13.4329 17.8472C12.1582 18.6898 11.1698 19.9213 10.4676 21.5417C9.76543 23.1512 9.41435 25.1065 9.41435 27.4074C9.41435 29.7731 9.76543 31.7608 10.4676 33.3704C11.1806 34.9799 12.1744 36.1952 13.4491 37.0162C14.7238 37.8372 16.1983 38.2477 17.8727 38.2477C18.8125 38.2477 19.6821 38.1235 20.4815 37.875C21.2917 37.6265 22.01 37.2647 22.6366 36.7894C23.2631 36.3032 23.7816 35.7145 24.1921 35.0231C24.6134 34.3318 24.9051 33.5432 25.0671 32.6574L32.1644 32.6898C31.9807 34.213 31.5216 35.6821 30.787 37.0972C30.0633 38.5015 29.0857 39.76 27.8542 40.8727C26.6335 41.9745 25.1752 42.8495 23.4792 43.4977C21.794 44.135 19.8873 44.4537 17.7593 44.4537C14.7994 44.4537 12.1528 43.784 9.81945 42.4444C7.49691 41.1049 5.66049 39.1659 4.31019 36.6273C2.97068 34.0887 2.30093 31.0154 2.30093 27.4074C2.30093 23.7886 2.98148 20.7099 4.34259 18.1713C5.7037 15.6327 7.55093 13.6991 9.88426 12.3704C12.2176 11.0309 14.8426 10.3611 17.7593 10.3611C19.6821 10.3611 21.4645 10.6312 23.1065 11.1713C24.7593 11.7114 26.223 12.5 27.4977 13.537C28.7724 14.5633 29.8094 15.8218 30.6088 17.3125C31.419 18.8032 31.9375 20.51 32.1644 22.4329ZM45.5736 44.4861C43.0566 44.4861 40.8799 43.9514 39.0435 42.8819C37.2179 41.8017 35.8081 40.3002 34.8143 38.3773C33.8205 36.4437 33.3236 34.2022 33.3236 31.6528C33.3236 29.0818 33.8205 26.8349 34.8143 24.912C35.8081 22.9784 37.2179 21.4769 39.0435 20.4074C40.8799 19.3272 43.0566 18.787 45.5736 18.787C48.0905 18.787 50.2618 19.3272 52.0875 20.4074C53.9239 21.4769 55.339 22.9784 56.3328 24.912C57.3267 26.8349 57.8236 29.0818 57.8236 31.6528C57.8236 34.2022 57.3267 36.4437 56.3328 38.3773C55.339 40.3002 53.9239 41.8017 52.0875 42.8819C50.2618 43.9514 48.0905 44.4861 45.5736 44.4861ZM45.606 39.1389C46.751 39.1389 47.7071 38.8148 48.474 38.1667C49.241 37.5077 49.8189 36.6111 50.2078 35.4769C50.6075 34.3426 50.8074 33.0517 50.8074 31.6042C50.8074 30.1566 50.6075 28.8657 50.2078 27.7315C49.8189 26.5972 49.241 25.7006 48.474 25.0417C47.7071 24.3827 46.751 24.0532 45.606 24.0532C44.4501 24.0532 43.4779 24.3827 42.6893 25.0417C41.9115 25.7006 41.3228 26.5972 40.9231 27.7315C40.5342 28.8657 40.3398 30.1566 40.3398 31.6042C40.3398 33.0517 40.5342 34.3426 40.9231 35.4769C41.3228 36.6111 41.9115 37.5077 42.6893 38.1667C43.4779 38.8148 44.4501 39.1389 45.606 39.1389ZM66.477 10.8148V44H59.5742V10.8148H66.477ZM76.1715 10.8148V44H69.2687V10.8148H76.1715ZM90.3058 44.4861C87.7456 44.4861 85.5419 43.9676 83.6947 42.9306C81.8583 41.8827 80.4432 40.4028 79.4494 38.4907C78.4555 36.5679 77.9586 34.294 77.9586 31.669C77.9586 29.1088 78.4555 26.8619 79.4494 24.9282C80.4432 22.9946 81.8421 21.4877 83.6461 20.4074C85.4609 19.3272 87.589 18.787 90.0304 18.787C91.6723 18.787 93.2009 19.0517 94.616 19.581C96.0419 20.0995 97.2842 20.8827 98.3429 21.9306C99.4123 22.9784 100.244 24.2963 100.838 25.8843C101.432 27.4614 101.729 29.3086 101.729 31.4259V33.3218H80.7132V29.044H95.2318C95.2318 28.0502 95.0157 27.1698 94.5836 26.4028C94.1515 25.6358 93.552 25.0363 92.785 24.6042C92.0288 24.1613 91.1484 23.9398 90.1438 23.9398C89.096 23.9398 88.1669 24.1829 87.3568 24.669C86.5574 25.1443 85.9308 25.787 85.4771 26.5972C85.0234 27.3966 84.7912 28.2878 84.7804 29.2708V33.338C84.7804 34.5694 85.0072 35.6335 85.4609 36.5301C85.9254 37.4267 86.579 38.1181 87.4216 38.6042C88.2642 39.0903 89.2634 39.3333 90.4193 39.3333C91.1862 39.3333 91.8884 39.2253 92.5257 39.0093C93.1631 38.7932 93.7086 38.4691 94.1623 38.037C94.616 37.6049 94.9617 37.0756 95.1994 36.4491L101.584 36.8704C101.26 38.4043 100.595 39.7438 99.5906 40.8889C98.5967 42.0231 97.3112 42.909 95.7341 43.5463C94.1677 44.1728 92.3583 44.4861 90.3058 44.4861ZM114.709 53.8519C112.473 53.8519 110.556 53.544 108.957 52.9282C107.369 52.3233 106.105 51.4969 105.165 50.4491C104.225 49.4012 103.615 48.2238 103.334 46.9167L109.719 46.0579C109.913 46.5548 110.221 47.0193 110.642 47.4514C111.063 47.8835 111.62 48.2292 112.311 48.4884C113.013 48.7585 113.867 48.8935 114.871 48.8935C116.373 48.8935 117.61 48.5262 118.582 47.7917C119.565 47.0679 120.056 45.8526 120.056 44.1458V39.5926H119.765C119.462 40.284 119.009 40.9375 118.404 41.5532C117.799 42.169 117.021 42.6713 116.07 43.0602C115.12 43.4491 113.985 43.6435 112.668 43.6435C110.799 43.6435 109.097 43.2114 107.563 42.3472C106.04 41.4722 104.825 40.1381 103.918 38.3449C103.021 36.5409 102.573 34.2616 102.573 31.5069C102.573 28.6875 103.032 26.3326 103.95 24.4421C104.868 22.5517 106.089 21.1366 107.612 20.1968C109.146 19.2569 110.826 18.787 112.651 18.787C114.045 18.787 115.212 19.0247 116.151 19.5C117.091 19.9645 117.847 20.5478 118.42 21.25C119.003 21.9414 119.452 22.6219 119.765 23.2917H120.024V19.1111H126.878V44.2431C126.878 46.3603 126.36 48.1319 125.323 49.5579C124.286 50.9838 122.849 52.0532 121.013 52.7662C119.187 53.49 117.086 53.8519 114.709 53.8519ZM114.855 38.4583C115.968 38.4583 116.908 38.1829 117.675 37.6319C118.452 37.0702 119.046 36.2708 119.457 35.2338C119.878 34.186 120.089 32.9329 120.089 31.4745C120.089 30.0162 119.884 28.7523 119.473 27.6829C119.063 26.6026 118.469 25.7654 117.691 25.1713C116.913 24.5772 115.968 24.2801 114.855 24.2801C113.721 24.2801 112.765 24.588 111.987 25.2037C111.209 25.8086 110.621 26.6512 110.221 27.7315C109.821 28.8117 109.621 30.0594 109.621 31.4745C109.621 32.9113 109.821 34.1535 110.221 35.2014C110.631 36.2384 111.22 37.0432 111.987 37.6157C112.765 38.1775 113.721 38.4583 114.855 38.4583ZM140.976 44.4861C138.416 44.4861 136.212 43.9676 134.365 42.9306C132.529 41.8827 131.113 40.4028 130.12 38.4907C129.126 36.5679 128.629 34.294 128.629 31.669C128.629 29.1088 129.126 26.8619 130.12 24.9282C131.113 22.9946 132.512 21.4877 134.316 20.4074C136.131 19.3272 138.259 18.787 140.701 18.787C142.343 18.787 143.871 19.0517 145.286 19.581C146.712 20.0995 147.955 20.8827 149.013 21.9306C150.083 22.9784 150.914 24.2963 151.509 25.8843C152.103 27.4614 152.4 29.3086 152.4 31.4259V33.3218H131.384V29.044H145.902C145.902 28.0502 145.686 27.1698 145.254 26.4028C144.822 25.6358 144.222 25.0363 143.455 24.6042C142.699 24.1613 141.819 23.9398 140.814 23.9398C139.766 23.9398 138.837 24.1829 138.027 24.669C137.228 25.1443 136.601 25.787 136.147 26.5972C135.694 27.3966 135.461 28.2878 135.451 29.2708V33.338C135.451 34.5694 135.678 35.6335 136.131 36.5301C136.596 37.4267 137.249 38.1181 138.092 38.6042C138.934 39.0903 139.934 39.3333 141.09 39.3333C141.857 39.3333 142.559 39.2253 143.196 39.0093C143.833 38.7932 144.379 38.4691 144.833 38.037C145.286 37.6049 145.632 37.0756 145.87 36.4491L152.254 36.8704C151.93 38.4043 151.265 39.7438 150.261 40.8889C149.267 42.0231 147.982 42.909 146.404 43.5463C144.838 44.1728 143.029 44.4861 140.976 44.4861ZM173.883 44H162.119V10.8148H173.98C177.318 10.8148 180.192 11.4792 182.601 12.8079C185.01 14.1258 186.862 16.0216 188.159 18.4954C189.466 20.9691 190.119 23.929 190.119 27.375C190.119 30.8318 189.466 33.8025 188.159 36.287C186.862 38.7716 184.999 40.6782 182.568 42.0069C180.149 43.3356 177.253 44 173.883 44ZM169.135 37.9884H173.591C175.665 37.9884 177.41 37.6211 178.825 36.8866C180.251 36.1412 181.321 34.9907 182.034 33.4352C182.757 31.8688 183.119 29.8488 183.119 27.375C183.119 24.9228 182.757 22.919 182.034 21.3634C181.321 19.8079 180.257 18.6628 178.841 17.9282C177.426 17.1937 175.682 16.8264 173.608 16.8264H169.135V37.9884ZM199.546 44.4699C197.958 44.4699 196.543 44.1944 195.301 43.6435C194.059 43.0818 193.076 42.2554 192.352 41.1644C191.639 40.0625 191.282 38.6906 191.282 37.0486C191.282 35.6659 191.536 34.5046 192.044 33.5648C192.552 32.625 193.243 31.8688 194.118 31.2963C194.993 30.7238 195.987 30.2917 197.1 30C198.223 29.7083 199.401 29.5031 200.632 29.3843C202.08 29.233 203.246 29.0926 204.132 28.963C205.018 28.8225 205.661 28.6173 206.06 28.3472C206.46 28.0772 206.66 27.6775 206.66 27.1481V27.0509C206.66 26.0247 206.336 25.2307 205.688 24.669C205.05 24.1073 204.143 23.8264 202.965 23.8264C201.723 23.8264 200.735 24.1019 200 24.6528C199.265 25.1929 198.779 25.8735 198.542 26.6944L192.157 26.1759C192.482 24.6636 193.119 23.3565 194.069 22.2546C195.02 21.142 196.246 20.2886 197.748 19.6944C199.26 19.0895 201.01 18.787 202.998 18.787C204.38 18.787 205.704 18.9491 206.968 19.2731C208.242 19.5972 209.371 20.0995 210.354 20.7801C211.348 21.4606 212.131 22.3356 212.704 23.4051C213.276 24.4637 213.563 25.733 213.563 27.213V44H207.016V40.5486H206.822C206.422 41.3264 205.887 42.0123 205.218 42.6065C204.548 43.1898 203.743 43.6489 202.803 43.9838C201.863 44.3079 200.778 44.4699 199.546 44.4699ZM201.523 39.706C202.539 39.706 203.435 39.5062 204.213 39.1065C204.991 38.696 205.601 38.1451 206.044 37.4537C206.487 36.7623 206.708 35.9792 206.708 35.1042V32.463C206.492 32.6034 206.195 32.733 205.817 32.8519C205.45 32.9599 205.034 33.0625 204.569 33.1597C204.105 33.2461 203.64 33.3272 203.176 33.4028C202.711 33.4676 202.29 33.527 201.912 33.581C201.102 33.6998 200.394 33.8889 199.789 34.1481C199.184 34.4074 198.715 34.7585 198.38 35.2014C198.045 35.6335 197.877 36.1736 197.877 36.8218C197.877 37.7616 198.218 38.4799 198.898 38.9769C199.59 39.463 200.465 39.706 201.523 39.706ZM222.435 36.838L222.451 28.5579H223.456L231.428 19.1111H239.351L228.641 31.6204H227.004L222.435 36.838ZM216.18 44V10.8148H223.083V44H216.18ZM231.736 44L224.412 33.1597L229.013 28.2824L239.821 44H231.736ZM246.903 29.6111V44H240V10.8148H246.709V23.5023H247C247.562 22.0332 248.469 20.8827 249.722 20.0509C250.975 19.2083 252.547 18.787 254.438 18.787C256.166 18.787 257.673 19.1651 258.959 19.9213C260.255 20.6667 261.259 21.7415 261.972 23.1458C262.696 24.5394 263.053 26.2083 263.042 28.1528V44H256.139V29.3843C256.15 27.8503 255.761 26.6566 254.972 25.8032C254.195 24.9498 253.104 24.5231 251.699 24.5231C250.759 24.5231 249.928 24.723 249.204 25.1227C248.491 25.5224 247.929 26.1057 247.519 26.8727C247.119 27.6289 246.914 28.5417 246.903 29.6111ZM272.639 10.8148V44H265.736V10.8148H272.639ZM282.528 44.4699C280.94 44.4699 279.525 44.1944 278.283 43.6435C277.04 43.0818 276.057 42.2554 275.334 41.1644C274.621 40.0625 274.264 38.6906 274.264 37.0486C274.264 35.6659 274.518 34.5046 275.026 33.5648C275.533 32.625 276.225 31.8688 277.1 31.2963C277.975 30.7238 278.969 30.2917 280.081 30C281.205 29.7083 282.382 29.5031 283.614 29.3843C285.061 29.233 286.228 29.0926 287.114 28.963C288 28.8225 288.642 28.6173 289.042 28.3472C289.442 28.0772 289.642 27.6775 289.642 27.1481V27.0509C289.642 26.0247 289.317 25.2307 288.669 24.669C288.032 24.1073 287.125 23.8264 285.947 23.8264C284.705 23.8264 283.716 24.1019 282.982 24.6528C282.247 25.1929 281.761 25.8735 281.523 26.6944L275.139 26.1759C275.463 24.6636 276.101 23.3565 277.051 22.2546C278.002 21.142 279.228 20.2886 280.729 19.6944C282.242 19.0895 283.992 18.787 285.979 18.787C287.362 18.787 288.685 18.9491 289.949 19.2731C291.224 19.5972 292.353 20.0995 293.336 20.7801C294.33 21.4606 295.113 22.3356 295.685 23.4051C296.258 24.4637 296.544 25.733 296.544 27.213V44H289.998V40.5486H289.804C289.404 41.3264 288.869 42.0123 288.199 42.6065C287.53 43.1898 286.725 43.6489 285.785 43.9838C284.845 44.3079 283.76 44.4699 282.528 44.4699ZM284.505 39.706C285.52 39.706 286.417 39.5062 287.195 39.1065C287.973 38.696 288.583 38.1451 289.026 37.4537C289.469 36.7623 289.69 35.9792 289.69 35.1042V32.463C289.474 32.6034 289.177 32.733 288.799 32.8519C288.432 32.9599 288.016 33.0625 287.551 33.1597C287.087 33.2461 286.622 33.3272 286.158 33.4028C285.693 33.4676 285.272 33.527 284.894 33.581C284.084 33.6998 283.376 33.8889 282.771 34.1481C282.166 34.4074 281.696 34.7585 281.361 35.2014C281.027 35.6335 280.859 36.1736 280.859 36.8218C280.859 37.7616 281.199 38.4799 281.88 38.9769C282.571 39.463 283.446 39.706 284.505 39.706Z" fill="#2F2F2F"/>
<path fill-rule="evenodd" clip-rule="evenodd" d="M162.119 44.0002H173.883C177.253 44.0002 180.149 43.3358 182.568 42.0071C184.999 40.6784 186.862 38.7718 188.159 36.2872C188.762 35.1409 189.226 33.8911 189.55 32.5379C186.738 33.0491 184.087 33.6135 181.62 34.2253C180.93 35.3865 179.998 36.2737 178.825 36.8867C177.41 37.6213 175.665 37.9886 173.591 37.9886H170.155C166.165 39.7612 163.39 41.7319 162.119 43.8278V44.0002ZM274.869 33.8792C274.466 34.7598 274.264 35.8163 274.264 37.0488C274.264 38.6907 274.621 40.0627 275.334 41.1645C276.057 42.2556 277.04 43.082 278.283 43.6437C279.525 44.1946 280.94 44.4701 282.528 44.4701C283.76 44.4701 284.845 44.308 285.785 43.984C286.725 43.6491 287.53 43.19 288.199 42.6066C288.869 42.0125 289.404 41.3266 289.804 40.5488H289.998V44.0002H295.908C294.747 41.9467 292.145 40.0108 288.369 38.2602C288.033 38.5887 287.642 38.8708 287.195 39.1066C286.417 39.5063 285.52 39.7062 284.505 39.7062C283.446 39.7062 282.571 39.4631 281.88 38.977C281.199 38.4801 280.859 37.7617 280.859 36.8219C280.859 36.3405 280.951 35.9186 281.136 35.5564C279.197 34.9623 277.103 34.402 274.869 33.8792ZM265.736 32.0817C268.148 32.4777 270.453 32.9116 272.639 33.3799V44.0002H265.736V32.0817ZM193.341 31.8968C199.493 30.9304 206.303 30.2069 213.563 29.7791V44.0002H207.016V40.5488H206.822C206.422 41.3266 205.887 42.0125 205.218 42.6066C204.548 43.19 203.743 43.6491 202.803 43.984C201.863 44.308 200.778 44.4701 199.546 44.4701C197.958 44.4701 196.543 44.1946 195.301 43.6437C194.059 43.082 193.076 42.2556 192.352 41.1645C191.639 40.0627 191.282 38.6907 191.282 37.0488C191.282 35.6661 191.536 34.5048 192.044 33.565C192.391 32.9233 192.823 32.3672 193.341 31.8968ZM216.18 29.6387C218.238 29.5391 220.329 29.4631 222.449 29.4118C222.66 29.4067 222.871 29.4019 223.083 29.3973C224.713 29.3618 226.359 29.3409 228.02 29.3351C228.334 29.334 228.648 29.3335 228.963 29.3335C229.221 29.3335 229.479 29.3339 229.737 29.3346C230.023 29.3354 230.309 29.3367 230.595 29.3384L230.12 29.8924L239.821 44.0002H231.736L224.954 33.962L223.083 36.098V44.0002H216.18V29.6387ZM240 29.5602C242.344 29.6576 244.647 29.7854 246.903 29.942V44.0002H240V29.5602ZM256.139 30.7711C258.515 31.0351 260.819 31.3327 263.042 31.6615V44.0002H256.139V30.7711ZM204.213 39.1066C203.435 39.5063 202.539 39.7062 201.523 39.7062C200.465 39.7062 199.59 39.4631 198.898 38.977C198.218 38.4801 197.877 37.7617 197.877 36.8219C197.877 36.1738 198.045 35.6336 198.38 35.2016C198.715 34.7586 199.184 34.4076 199.789 34.1483C200.394 33.8891 201.102 33.7 201.912 33.5812C202.29 33.5272 202.711 33.4678 203.176 33.4029C203.64 33.3273 204.105 33.2463 204.569 33.1599C205.034 33.0627 205.45 32.96 205.817 32.852C206.195 32.7332 206.492 32.6036 206.708 32.4631V35.1043C206.708 35.9793 206.487 36.7625 206.044 37.4539C205.601 38.1452 204.991 38.6961 204.213 39.1066Z" fill="white"/>
</g>
<defs>
<clipPath id="clip0_87_1350">
<rect width="299.852" height="44" fill="white"/>
</clipPath>
</defs>
</svg>
