<svg width="184" height="27" viewBox="0 0 184 27" fill="none" xmlns="http://www.w3.org/2000/svg">
<g clip-path="url(#clip0_8_70)">
<path d="M19.7372 13.7656H15.3821C15.3026 13.2022 15.1402 12.7017 14.8949 12.2642C14.6496 11.8201 14.3348 11.4422 13.9503 11.1307C13.5658 10.8191 13.1217 10.5805 12.6179 10.4148C12.1207 10.2491 11.5805 10.1662 10.9972 10.1662C9.94318 10.1662 9.0251 10.428 8.2429 10.9517C7.4607 11.4687 6.85417 12.2244 6.4233 13.2188C5.99242 14.2064 5.77699 15.4062 5.77699 16.8182C5.77699 18.2699 5.99242 19.4896 6.4233 20.4773C6.8608 21.465 7.47064 22.2107 8.25284 22.7145C9.03504 23.2183 9.93987 23.4702 10.9673 23.4702C11.544 23.4702 12.0777 23.3939 12.5682 23.2415C13.0653 23.089 13.5062 22.867 13.8906 22.5753C14.2751 22.277 14.5933 21.9157 14.8452 21.4915C15.1037 21.0672 15.2827 20.5833 15.3821 20.0398L19.7372 20.0597C19.6245 20.9943 19.3428 21.8958 18.892 22.7642C18.4479 23.6259 17.848 24.3982 17.0923 25.081C16.3433 25.7571 15.4484 26.294 14.4077 26.6918C13.3736 27.0829 12.2036 27.2784 10.8977 27.2784C9.08144 27.2784 7.45739 26.8674 6.02557 26.0455C4.60038 25.2235 3.47348 24.0336 2.64489 22.4759C1.82292 20.9181 1.41193 19.0322 1.41193 16.8182C1.41193 14.5975 1.82955 12.7083 2.66477 11.1506C3.5 9.5928 4.63352 8.40625 6.06534 7.59091C7.49716 6.76894 9.10795 6.35795 10.8977 6.35795C12.0777 6.35795 13.1714 6.52367 14.179 6.85511C15.1932 7.18655 16.0914 7.67045 16.8736 8.30682C17.6558 8.93655 18.2921 9.70881 18.7827 10.6236C19.2798 11.5384 19.598 12.5857 19.7372 13.7656ZM27.9656 27.2983C26.4211 27.2983 25.0854 26.9702 23.9585 26.3139C22.8382 25.651 21.9732 24.7296 21.3633 23.5497C20.7535 22.3632 20.4486 20.9877 20.4486 19.4233C20.4486 17.8456 20.7535 16.4669 21.3633 15.2869C21.9732 14.1004 22.8382 13.179 23.9585 12.5227C25.0854 11.8598 26.4211 11.5284 27.9656 11.5284C29.5101 11.5284 30.8425 11.8598 31.9628 12.5227C33.0896 13.179 33.958 14.1004 34.5679 15.2869C35.1777 16.4669 35.4826 17.8456 35.4826 19.4233C35.4826 20.9877 35.1777 22.3632 34.5679 23.5497C33.958 24.7296 33.0896 25.651 31.9628 26.3139C30.8425 26.9702 29.5101 27.2983 27.9656 27.2983ZM27.9855 24.017C28.6881 24.017 29.2748 23.8182 29.7454 23.4205C30.2161 23.0161 30.5707 22.4659 30.8093 21.7699C31.0546 21.0739 31.1772 20.2817 31.1772 19.3935C31.1772 18.5052 31.0546 17.7131 30.8093 17.017C30.5707 16.321 30.2161 15.7708 29.7454 15.3665C29.2748 14.9621 28.6881 14.7599 27.9855 14.7599C27.2762 14.7599 26.6796 14.9621 26.1957 15.3665C25.7184 15.7708 25.3572 16.321 25.1119 17.017C24.8733 17.7131 24.7539 18.5052 24.7539 19.3935C24.7539 20.2817 24.8733 21.0739 25.1119 21.7699C25.3572 22.4659 25.7184 23.0161 26.1957 23.4205C26.6796 23.8182 27.2762 24.017 27.9855 24.017ZM40.7927 6.63636V27H36.5569V6.63636H40.7927ZM46.7416 6.63636V27H42.5058V6.63636H46.7416ZM55.4149 27.2983C53.8439 27.2983 52.4916 26.9801 51.3581 26.3438C50.2312 25.7008 49.3629 24.7926 48.753 23.6193C48.1432 22.4394 47.8382 21.044 47.8382 19.4332C47.8382 17.8622 48.1432 16.4834 48.753 15.2969C49.3629 14.1103 50.2213 13.1856 51.3283 12.5227C52.4419 11.8598 53.7478 11.5284 55.2459 11.5284C56.2535 11.5284 57.1915 11.6908 58.0598 12.0156C58.9348 12.3338 59.6971 12.8144 60.3468 13.4574C61.003 14.1004 61.5134 14.9091 61.878 15.8835C62.2426 16.8513 62.4249 17.9848 62.4249 19.2841V20.4474H49.5286V17.8224H58.4377C58.4377 17.2126 58.3051 16.6723 58.0399 16.2017C57.7748 15.7311 57.4069 15.3632 56.9362 15.098C56.4722 14.8262 55.932 14.6903 55.3155 14.6903C54.6725 14.6903 54.1024 14.8395 53.6053 15.1378C53.1148 15.4295 52.7303 15.8239 52.4519 16.321C52.1735 16.8116 52.0309 17.3584 52.0243 17.9616V20.4574C52.0243 21.2131 52.1635 21.866 52.4419 22.4162C52.727 22.9664 53.128 23.3906 53.6451 23.6889C54.1621 23.9872 54.7753 24.1364 55.4845 24.1364C55.9552 24.1364 56.3861 24.0701 56.7772 23.9375C57.1683 23.8049 57.503 23.6061 57.7814 23.3409C58.0598 23.0758 58.2719 22.7509 58.4178 22.3665L62.3354 22.625C62.1365 23.5663 61.7289 24.3883 61.1124 25.0909C60.5025 25.7869 59.7137 26.3305 58.7459 26.7216C57.7847 27.1061 56.6744 27.2983 55.4149 27.2983ZM70.3898 33.0455C69.0176 33.0455 67.841 32.8565 66.8599 32.4787C65.8855 32.1075 65.1099 31.6004 64.5332 30.9574C63.9565 30.3144 63.582 29.5919 63.4097 28.7898L67.3273 28.2628C67.4466 28.5677 67.6355 28.8527 67.894 29.1179C68.1526 29.383 68.4939 29.5952 68.9182 29.7543C69.3491 29.92 69.8727 30.0028 70.4892 30.0028C71.4106 30.0028 72.1696 29.7775 72.7662 29.3267C73.3694 28.8826 73.671 28.1368 73.671 27.0895V24.2955H73.492C73.3064 24.7197 73.028 25.1207 72.6568 25.4986C72.2856 25.8764 71.8083 26.1847 71.225 26.4233C70.6417 26.6619 69.9456 26.7812 69.1369 26.7812C67.9902 26.7812 66.9461 26.5161 66.0048 25.9858C65.0702 25.4489 64.3244 24.6302 63.7676 23.5298C63.2174 22.4228 62.9423 21.0241 62.9423 19.3338C62.9423 17.6037 63.2241 16.1586 63.7875 14.9986C64.3509 13.8385 65.1 12.9702 66.0347 12.3935C66.9759 11.8168 68.0067 11.5284 69.127 11.5284C69.9821 11.5284 70.698 11.6742 71.2747 11.9659C71.8514 12.2509 72.3154 12.6089 72.6668 13.0398C73.0247 13.464 73.2998 13.8816 73.492 14.2926H73.6511V11.7273H77.8571V27.1491C77.8571 28.4484 77.5389 29.5355 76.9026 30.4105C76.2662 31.2855 75.3846 31.9418 74.2577 32.3793C73.1374 32.8234 71.8481 33.0455 70.3898 33.0455ZM70.4793 23.5994C71.162 23.5994 71.7387 23.4304 72.2094 23.0923C72.6866 22.7476 73.0512 22.2571 73.3031 21.6207C73.5616 20.9777 73.6909 20.2088 73.6909 19.3139C73.6909 18.419 73.565 17.6435 73.3131 16.9872C73.0612 16.3243 72.6966 15.8106 72.2193 15.446C71.742 15.0814 71.162 14.8991 70.4793 14.8991C69.7832 14.8991 69.1966 15.0881 68.7193 15.4659C68.242 15.8371 67.8808 16.3542 67.6355 17.017C67.3902 17.6799 67.2676 18.4455 67.2676 19.3139C67.2676 20.1955 67.3902 20.9579 67.6355 21.6009C67.8874 22.2372 68.2487 22.7311 68.7193 23.0824C69.1966 23.4271 69.7832 23.5994 70.4793 23.5994ZM86.5081 27.2983C84.937 27.2983 83.5848 26.9801 82.4512 26.3438C81.3244 25.7008 80.456 24.7926 79.8461 23.6193C79.2363 22.4394 78.9314 21.044 78.9314 19.4332C78.9314 17.8622 79.2363 16.4834 79.8461 15.2969C80.456 14.1103 81.3144 13.1856 82.4214 12.5227C83.5351 11.8598 84.8409 11.5284 86.339 11.5284C87.3466 11.5284 88.2846 11.6908 89.153 12.0156C90.028 12.3338 90.7903 12.8144 91.4399 13.4574C92.0961 14.1004 92.6066 14.9091 92.9711 15.8835C93.3357 16.8513 93.518 17.9848 93.518 19.2841V20.4474H80.6217V17.8224H89.5308C89.5308 17.2126 89.3982 16.6723 89.1331 16.2017C88.8679 15.7311 88.5 15.3632 88.0294 15.098C87.5654 14.8262 87.0251 14.6903 86.4086 14.6903C85.7656 14.6903 85.1956 14.8395 84.6984 15.1378C84.2079 15.4295 83.8234 15.8239 83.545 16.321C83.2666 16.8116 83.1241 17.3584 83.1174 17.9616V20.4574C83.1174 21.2131 83.2566 21.866 83.5351 22.4162C83.8201 22.9664 84.2211 23.3906 84.7382 23.6889C85.2552 23.9872 85.8684 24.1364 86.5777 24.1364C87.0483 24.1364 87.4792 24.0701 87.8703 23.9375C88.2614 23.8049 88.5961 23.6061 88.8745 23.3409C89.153 23.0758 89.3651 22.7509 89.5109 22.3665L93.4285 22.625C93.2297 23.5663 92.822 24.3883 92.2055 25.0909C91.5957 25.7869 90.8068 26.3305 89.839 26.7216C88.8779 27.1061 87.7675 27.2983 86.5081 27.2983ZM106.701 27H99.4822V6.63636H106.761C108.809 6.63636 110.572 7.04403 112.05 7.85938C113.529 8.66809 114.665 9.83144 115.461 11.3494C116.263 12.8674 116.664 14.6837 116.664 16.7983C116.664 18.9195 116.263 20.7424 115.461 22.267C114.665 23.7917 113.522 24.9616 112.031 25.777C110.546 26.5923 108.769 27 106.701 27ZM103.788 23.3111H106.522C107.795 23.3111 108.865 23.0857 109.734 22.6349C110.609 22.1776 111.265 21.4716 111.702 20.517C112.147 19.5559 112.369 18.3163 112.369 16.7983C112.369 15.2936 112.147 14.0639 111.702 13.1094C111.265 12.1548 110.612 11.4522 109.744 11.0014C108.875 10.5507 107.805 10.3253 106.532 10.3253H103.788V23.3111ZM122.449 27.2884C121.474 27.2884 120.606 27.1193 119.844 26.7812C119.081 26.4366 118.478 25.9295 118.034 25.2599C117.597 24.5838 117.378 23.742 117.378 22.7344C117.378 21.8859 117.534 21.1733 117.845 20.5966C118.157 20.0199 118.581 19.5559 119.118 19.2045C119.655 18.8532 120.265 18.5881 120.947 18.4091C121.637 18.2301 122.359 18.1042 123.115 18.0312C124.003 17.9384 124.719 17.8523 125.263 17.7727C125.806 17.6866 126.201 17.5606 126.446 17.3949C126.691 17.2292 126.814 16.9839 126.814 16.6591V16.5994C126.814 15.9697 126.615 15.4825 126.217 15.1378C125.826 14.7931 125.269 14.6207 124.547 14.6207C123.785 14.6207 123.178 14.7898 122.727 15.1278C122.277 15.4593 121.978 15.8769 121.832 16.3807L117.915 16.0625C118.114 15.1345 118.505 14.3324 119.088 13.6562C119.671 12.9735 120.424 12.4498 121.345 12.0852C122.273 11.714 123.347 11.5284 124.567 11.5284C125.415 11.5284 126.227 11.6278 127.003 11.8267C127.785 12.0256 128.478 12.3338 129.081 12.7514C129.691 13.169 130.171 13.706 130.523 14.3622C130.874 15.0118 131.05 15.7907 131.05 16.6989V27H127.033V24.8821H126.913C126.668 25.3594 126.34 25.7803 125.929 26.1449C125.518 26.5028 125.024 26.7846 124.447 26.9901C123.871 27.1889 123.205 27.2884 122.449 27.2884ZM123.662 24.3651C124.285 24.3651 124.835 24.2424 125.313 23.9972C125.79 23.7453 126.164 23.4072 126.436 22.983C126.708 22.5587 126.844 22.0781 126.844 21.5412V19.9205C126.711 20.0066 126.529 20.0862 126.297 20.1591C126.072 20.2254 125.816 20.2884 125.531 20.348C125.246 20.401 124.961 20.4508 124.676 20.4972C124.391 20.5369 124.133 20.5734 123.901 20.6065C123.403 20.6795 122.969 20.7955 122.598 20.9545C122.227 21.1136 121.938 21.3291 121.733 21.6009C121.527 21.866 121.425 22.1974 121.425 22.5952C121.425 23.1719 121.634 23.6127 122.051 23.9176C122.475 24.2159 123.012 24.3651 123.662 24.3651ZM136.494 22.6051L136.504 17.5241H137.12L142.012 11.7273H146.875L140.302 19.4034H139.298L136.494 22.6051ZM132.656 27V6.63636H136.892V27H132.656ZM142.201 27L137.707 20.348L140.531 17.3551L147.163 27H142.201ZM151.509 18.1705V27H147.273V6.63636H151.389V14.4219H151.568C151.913 13.5204 152.47 12.8144 153.239 12.304C154.008 11.7869 154.972 11.5284 156.132 11.5284C157.193 11.5284 158.118 11.7604 158.906 12.2244C159.702 12.6818 160.318 13.3414 160.756 14.2031C161.2 15.0582 161.419 16.0824 161.412 17.2756V27H157.176V18.0312C157.183 17.09 156.944 16.3575 156.46 15.8338C155.983 15.3101 155.314 15.0483 154.452 15.0483C153.875 15.0483 153.365 15.1709 152.921 15.4162C152.483 15.6615 152.138 16.0194 151.886 16.4901C151.641 16.9541 151.515 17.5142 151.509 18.1705ZM167.301 6.63636V27H163.065V6.63636H167.301ZM173.37 27.2884C172.395 27.2884 171.527 27.1193 170.764 26.7812C170.002 26.4366 169.399 25.9295 168.955 25.2599C168.517 24.5838 168.298 23.742 168.298 22.7344C168.298 21.8859 168.454 21.1733 168.766 20.5966C169.077 20.0199 169.502 19.5559 170.039 19.2045C170.575 18.8532 171.185 18.5881 171.868 18.4091C172.557 18.2301 173.28 18.1042 174.036 18.0312C174.924 17.9384 175.64 17.8523 176.183 17.7727C176.727 17.6866 177.121 17.5606 177.367 17.3949C177.612 17.2292 177.735 16.9839 177.735 16.6591V16.5994C177.735 15.9697 177.536 15.4825 177.138 15.1378C176.747 14.7931 176.19 14.6207 175.468 14.6207C174.705 14.6207 174.099 14.7898 173.648 15.1278C173.197 15.4593 172.899 15.8769 172.753 16.3807L168.835 16.0625C169.034 15.1345 169.425 14.3324 170.009 13.6562C170.592 12.9735 171.344 12.4498 172.266 12.0852C173.194 11.714 174.268 11.5284 175.487 11.5284C176.336 11.5284 177.148 11.6278 177.923 11.8267C178.706 12.0256 179.398 12.3338 180.002 12.7514C180.611 13.169 181.092 13.706 181.443 14.3622C181.795 15.0118 181.97 15.7907 181.97 16.6989V27H177.953V24.8821H177.834C177.589 25.3594 177.261 25.7803 176.85 26.1449C176.439 26.5028 175.945 26.7846 175.368 26.9901C174.791 27.1889 174.125 27.2884 173.37 27.2884ZM174.583 24.3651C175.206 24.3651 175.756 24.2424 176.233 23.9972C176.71 23.7453 177.085 23.4072 177.357 22.983C177.629 22.5587 177.764 22.0781 177.764 21.5412V19.9205C177.632 20.0066 177.45 20.0862 177.218 20.1591C176.992 20.2254 176.737 20.2884 176.452 20.348C176.167 20.401 175.882 20.4508 175.597 20.4972C175.312 20.5369 175.053 20.5734 174.821 20.6065C174.324 20.6795 173.89 20.7955 173.519 20.9545C173.147 21.1136 172.859 21.3291 172.654 21.6009C172.448 21.866 172.345 22.1974 172.345 22.5952C172.345 23.1719 172.554 23.6127 172.972 23.9176C173.396 24.2159 173.933 24.3651 174.583 24.3651Z" fill="#2F2F2F"/>
<path fill-rule="evenodd" clip-rule="evenodd" d="M99.4822 27H106.701C108.769 27 110.546 26.5923 112.031 25.777C113.522 24.9616 114.665 23.7917 115.461 22.267C115.831 21.5636 116.116 20.7967 116.315 19.9663C114.589 20.28 112.962 20.6263 111.449 21.0018C111.025 21.7143 110.453 22.2587 109.734 22.6349C108.865 23.0857 107.795 23.3111 106.522 23.3111H104.413C101.965 24.3988 100.262 25.6081 99.4822 26.8942V27ZM168.67 20.7894C168.422 21.3298 168.299 21.9781 168.299 22.7344C168.299 23.7419 168.517 24.5838 168.955 25.2599C169.399 25.9294 170.002 26.4365 170.764 26.7812C171.527 27.1193 172.395 27.2883 173.37 27.2883C174.125 27.2883 174.791 27.1889 175.368 26.9901C175.945 26.7846 176.439 26.5028 176.85 26.1449C177.261 25.7803 177.589 25.3594 177.834 24.8821H177.953V27H181.58C180.867 25.7399 179.271 24.552 176.954 23.4777C176.748 23.6793 176.507 23.8525 176.233 23.9972C175.756 24.2424 175.206 24.3651 174.583 24.3651C173.933 24.3651 173.396 24.2159 172.972 23.9176C172.554 23.6127 172.345 23.1719 172.345 22.5952C172.345 22.2997 172.402 22.0408 172.515 21.8186C171.326 21.454 170.041 21.1102 168.67 20.7894ZM163.066 19.6864C164.545 19.9294 165.96 20.1956 167.301 20.483V27H163.066V19.6864ZM118.641 19.5729C122.416 18.9799 126.595 18.5359 131.05 18.2734V27H127.033V24.8821H126.913C126.668 25.3594 126.34 25.7803 125.929 26.1449C125.518 26.5028 125.024 26.7846 124.447 26.9901C123.871 27.1889 123.205 27.2883 122.449 27.2883C121.474 27.2883 120.606 27.1193 119.844 26.7812C119.081 26.4365 118.478 25.9294 118.034 25.2599C117.597 24.5838 117.378 23.7419 117.378 22.7344C117.378 21.8859 117.534 21.1733 117.845 20.5966C118.058 20.2028 118.323 19.8616 118.641 19.5729ZM132.656 18.1873C133.919 18.1261 135.202 18.0795 136.503 18.048C136.632 18.0449 136.762 18.0419 136.892 18.0391C137.892 18.0173 138.902 18.0045 139.922 18.001C140.114 18.0003 140.307 18 140.5 18C140.659 18 140.817 18.0002 140.975 18.0006C141.151 18.0011 141.326 18.0019 141.501 18.003L141.21 18.343L147.163 27H142.201L138.04 20.8402L136.892 22.151V27H132.656V18.1873ZM147.273 18.1391C148.711 18.1988 150.124 18.2773 151.509 18.3734V27H147.273V18.1391ZM157.176 18.8821C158.634 19.0441 160.048 19.2268 161.412 19.4285V27H157.176V18.8821ZM125.313 23.9972C124.835 24.2424 124.285 24.3651 123.662 24.3651C123.012 24.3651 122.475 24.2159 122.051 23.9176C121.634 23.6127 121.425 23.1719 121.425 22.5952C121.425 22.1974 121.528 21.866 121.733 21.6008C121.938 21.3291 122.227 21.1136 122.598 20.9545C122.969 20.7955 123.403 20.6794 123.901 20.6065C124.133 20.5734 124.391 20.5369 124.676 20.4972C124.961 20.4508 125.246 20.401 125.531 20.348C125.816 20.2883 126.072 20.2254 126.297 20.1591C126.529 20.0862 126.711 20.0066 126.844 19.9205V21.5412C126.844 22.0781 126.708 22.5587 126.436 22.983C126.164 23.4072 125.79 23.7453 125.313 23.9972Z" fill="#FF4444"/>
</g>
<defs>
<clipPath id="clip0_8_70">
<rect width="184" height="27" fill="white"/>
</clipPath>
</defs>
</svg>
