<svg width="221" height="60" viewBox="0 0 221 60" fill="none" xmlns="http://www.w3.org/2000/svg">
<path d="M221 7H0V52H221V7Z" fill="white"/>
<path d="M3.31641 10.2965H217.828V48.0306H3.31641V10.2965Z" fill="#004C8F"/>
<path d="M39.1602 10.2965H217.828V48.0306H39.1602V10.2965Z" fill="#004C8F"/>
<path d="M50.377 37.949V20.0901H55.8492V26.1391H61.0479V20.0901H66.5201V37.949H61.0479V31.0359H55.8492V37.949H50.377Z" fill="white"/>
<path d="M75.5494 24.6989H76.9174C78.0119 24.6989 78.8327 24.6989 79.1063 24.9869C79.3799 25.275 79.6536 25.2749 79.9272 25.851C80.2008 26.1391 80.4743 26.7152 80.4743 27.2913C80.4743 27.8674 80.748 28.4435 80.748 29.0196C80.748 30.1717 80.748 31.0359 80.2008 31.612C79.9272 32.1881 79.3799 32.7641 79.1063 33.0522C78.5591 33.3402 77.7382 33.6283 76.6438 33.6283H75.2757V24.6989H75.5494ZM77.7382 37.949C79.1063 37.949 80.2008 37.949 81.0216 37.661C81.8424 37.3729 82.6632 37.0849 83.2105 36.7969C83.7577 36.5088 84.3049 35.9327 84.8521 35.3566C85.3994 34.7805 85.673 33.9164 85.9466 32.7642C86.2202 31.612 86.4938 30.4598 86.4938 29.3076C86.4938 27.2913 86.2202 25.563 85.3994 24.4108C84.5786 22.9706 83.7577 22.1064 82.3897 21.5303C81.0216 20.9542 79.6535 20.6662 78.0119 20.6662H70.0771V38.5251L77.7382 37.949Z" fill="white"/>
<path d="M88.957 37.949V20.0901H102.09V24.4108H94.4293V27.2912H100.722V31.6119H94.4293V37.949H88.957Z" fill="white"/>
<path d="M120.969 27.0033H115.77C115.77 26.1391 115.497 25.275 114.949 24.9869C114.402 24.4108 113.855 24.1228 113.034 24.1228C111.94 24.1228 111.119 24.4109 110.572 25.275C110.024 26.1391 109.751 27.2913 109.751 29.3076C109.751 30.4598 110.024 31.612 110.024 32.1881C110.298 32.7642 110.572 33.3403 111.119 33.6283C111.666 33.9164 112.213 34.2044 112.76 34.2044C113.581 34.2044 114.402 33.9164 114.676 33.3403C115.223 32.7642 115.497 32.1881 115.497 31.0359H120.969C120.969 32.1881 120.695 33.0522 120.422 33.9164C120.148 34.7805 119.601 35.3566 118.78 36.2207C117.959 37.0849 117.138 37.661 116.317 37.949C115.223 38.2371 114.129 38.5251 112.76 38.5251C111.392 38.5251 110.298 38.2371 109.203 37.949C108.109 37.661 107.288 37.0849 106.467 36.2207C105.647 35.3566 105.099 34.4925 104.826 33.6283C104.279 32.1881 104.005 30.7479 104.005 29.3076C104.005 27.8674 104.279 26.7152 104.552 25.5631C105.099 24.4109 105.647 23.2587 106.194 22.6826C107.015 21.8185 107.835 21.2423 108.656 20.9543C109.751 20.3782 111.119 20.0901 112.487 20.0901C113.855 20.0901 114.949 20.3782 116.044 20.6662C117.138 20.9543 117.959 21.5304 118.78 22.3945C119.601 23.2587 120.148 24.1228 120.422 24.9869C120.695 25.275 120.695 26.1391 120.969 27.0033Z" fill="white"/>
<path d="M138.755 24.1228C139.576 24.1228 140.123 24.1228 140.396 24.1228C140.67 24.1228 140.944 24.4108 141.217 24.6988C141.491 24.9869 141.491 25.275 141.491 25.563C141.491 26.1391 141.217 26.4272 140.944 26.7152C140.67 27.0033 140.123 27.2912 139.028 27.2912H136.839V24.1228H138.755ZM140.123 37.949C141.491 37.949 142.312 37.949 142.859 37.6609C143.406 37.6609 143.953 37.3729 144.501 37.0849C145.048 36.7968 145.595 36.5087 145.869 36.2207C146.416 35.9327 146.689 35.3566 146.963 34.7805C147.237 34.2044 147.237 33.3403 147.237 32.7642C147.237 31.612 146.963 30.7478 146.416 30.1717C145.869 29.3076 145.321 29.0195 144.227 28.7315C145.595 27.8673 146.416 26.4271 146.416 24.9869C146.416 23.2586 145.869 22.1065 144.501 21.2423C143.406 20.6662 142.038 20.3781 139.849 20.3781H131.367V38.2371H140.123V37.949ZM139.302 30.4598C140.396 30.4598 141.217 30.4598 141.491 31.0359C141.764 31.3239 142.038 31.612 142.038 32.1881C142.038 32.7642 141.764 33.0522 141.491 33.3402C141.217 33.6283 140.396 33.9164 139.302 33.9164H137.113V30.4598H139.302Z" fill="white"/>
<path d="M159.274 31.9H155.717L157.359 25.563L159.274 31.9ZM154.076 37.949L154.623 35.6446H160.095L160.642 37.949H166.115L160.095 20.0901H154.896L148.877 37.949H154.076Z" fill="white"/>
<path d="M168.851 37.949V20.0901H174.049L179.795 29.5956V20.0901H184.994V37.949H179.795L174.049 28.7315V37.949H168.851Z" fill="white"/>
<path d="M188.824 37.949V20.0901H194.296V25.851L199.221 20.0901H205.788L199.495 26.7152L206.335 37.949H199.769L195.664 30.7478L194.296 32.188V37.6609L188.824 37.949Z" fill="white"/>
<path d="M3.31641 10.2965H39.1595V48.0306H3.31641V10.2965Z" fill="#ED232A"/>
<path d="M9.60938 16.9216H32.8663V41.4055H9.60938V16.9216Z" fill="white"/>
<path d="M19.459 10.2965H23.0159V48.0306H19.459V10.2965Z" fill="white"/>
<path d="M3.31641 27.2911H39.1595V31.0358H3.31641V27.2911Z" fill="white"/>
<path d="M15.9033 23.5466H26.5741V34.7804H15.9033V23.5466Z" fill="#004C8F"/>
</svg>
