<svg width="203" height="60" viewBox="0 0 203 60" fill="none" xmlns="http://www.w3.org/2000/svg">
<path fill-rule="evenodd" clip-rule="evenodd" d="M19.2143 9L20.0898 15.4367L19.2143 20.3093C16.2999 20.3093 13.9382 22.7604 13.9382 25.7823C13.9382 27.6734 14.8621 29.3398 16.2687 30.3238V35.6783H19.2143L20.0898 42.0047L19.2143 50C0.572596 42.7032 0.000339508 17.6186 0.000339508 17.6186L19.2143 9Z" fill="#E63748"/>
<path fill-rule="evenodd" clip-rule="evenodd" d="M19.2129 9V20.3093C22.1274 20.3093 24.489 22.7604 24.489 25.7823C24.489 27.6734 23.5651 29.3398 22.1585 30.3238V35.6783H19.2129V50C37.8546 42.7032 38.4269 17.6186 38.4269 17.6186L19.2129 9Z" fill="#C42B34"/>
<path fill-rule="evenodd" clip-rule="evenodd" d="M79.9305 17.0167C86.903 17.0167 91.6263 21.8404 91.6263 30.3352C91.6263 38.8705 86.903 43.8936 79.9305 43.8936C72.9596 43.8936 68.2347 38.8705 68.2347 30.3352C68.2347 21.8016 72.9596 17.0167 79.9305 17.0167ZM185.69 16.9407L189.806 31.2276C190.745 34.3747 191.333 36.8778 192.314 39.9843H192.47C193.412 36.8778 194.039 34.3747 194.939 31.2276L199.055 16.9407H202.386L194.235 43.4153H190.433L182.202 16.9407H185.69ZM172.364 16.9407L181.064 43.4153H177.578L175.147 35.3448H165.78L163.31 43.4153H159.98L168.68 16.9407H172.364ZM144.913 17.4934V37.6739H154.44V43.4153H138.253V17.4934H144.913ZM128.184 17.4934L135.853 43.4153H128.804L127.566 37.9122H120.517L119.277 43.4153H112.46L120.128 17.4934H128.184ZM113.47 17.4934V23.2365H106.807V43.4153H100.147V23.2365H93.4836V17.4934H113.47ZM66.7644 17.4934V23.2365H60.1028V43.4153H53.4428V23.2365H46.7812V17.4934H66.7644ZM79.9305 22.9171C76.9106 22.9171 75.0517 25.6298 75.0517 30.3352C75.0517 35.0406 76.9106 37.9916 79.9305 37.9916C82.952 37.9916 84.8109 35.0406 84.8109 30.3352C84.8109 25.6298 82.952 22.9171 79.9305 22.9171ZM170.521 19.6855H170.366C169.68 22.3682 168.963 24.9293 168.165 27.5012L167.818 28.6045L166.602 32.6406H174.325L173.11 28.6045C172.169 25.6585 171.345 22.7514 170.521 19.6855ZM124.079 22.5993H123.925C123.432 24.9901 122.875 27.779 122.312 30.1241L122.143 30.8135L121.717 32.6085H126.364L125.938 30.8135C125.657 29.6895 125.376 28.4259 125.094 27.1383L124.756 25.5891C124.53 24.5585 124.305 23.5421 124.079 22.5993Z" fill="#2C3035"/>
</svg>
