<svg width="150" height="60" viewBox="0 0 150 60" fill="none" xmlns="http://www.w3.org/2000/svg">
<path fill-rule="evenodd" clip-rule="evenodd" d="M145.447 19.888C147.93 19.888 150 18.1401 150 15.944C150 13.7927 147.93 12 145.447 12C142.963 12 140.894 13.7927 140.894 15.944C140.945 18.1401 142.963 19.888 145.447 19.888ZM141.618 15.9888C141.618 14.1513 143.377 12.6275 145.499 12.6275C147.62 12.6275 149.379 14.1513 149.379 15.9888C149.379 17.8263 147.62 19.3501 145.499 19.3501C143.325 19.3053 141.618 17.8263 141.618 15.9888ZM143.739 17.9608H144.619V16.2577H145.654L146.43 17.916H147.413L146.533 16.1233C146.844 15.9888 147.361 15.8543 147.361 15.0924C147.361 13.8824 146.326 13.7479 145.395 13.7479H143.791V17.9608H143.739ZM144.619 14.5098H145.602C146.119 14.5098 146.43 14.6891 146.43 15.0476C146.43 15.4062 146.12 15.5854 145.706 15.5854H144.671V14.5098H144.619Z" fill="#007CC3"/>
<path d="M0 17.7366V17.6918V13.0308H5.38117V17.6918V17.7366V47.0028V47.0924V51.6638H0V47.0476V47.0028V17.7366Z" fill="#007CC3"/>
<path d="M54.5881 37.5911C54.7434 44.6275 59.7623 50.2297 65.8679 50.1401C71.9734 50.0505 76.7854 44.2689 76.6302 37.2773C76.475 30.2409 71.456 24.6387 65.3505 24.7283C59.2449 24.8179 54.4329 30.5995 54.5881 37.5911ZM98.9827 29.1205C99.138 29.3894 98.7758 28.7171 98.7758 28.7171L98.9827 29.1205ZM102.656 58.2073C102.915 57.8488 103.226 57.311 103.64 56.5939L102.656 58.2073ZM102.967 26.7003C103.019 26.8348 103.122 27.014 103.174 27.1933L104.985 31.0028L102.967 26.7003ZM80.5109 45.972C83.8224 48.5715 86.8234 49.916 90.6523 49.916C94.5847 49.9608 98.0514 48.3026 98.0514 45.1205C98.0514 42.4762 95.3091 40.9076 90.4453 39.1149C86.306 37.5911 83.2532 36.4706 81.6492 34.2745C81.8562 35.2605 81.9596 36.2465 81.9596 37.2773C81.9596 45.8824 74.7158 52.874 65.8161 52.874C56.8648 52.874 49.6726 45.8824 49.6726 37.2773C49.6726 32.0785 52.3115 27.4622 56.3474 24.6387H45.3781V47.0028V47.0925V51.7087H40.5143V47.2717C40.5143 47.1821 40.5143 47.0925 40.5143 47.0477V24.6387H36.2197V21.8151H40.5661C41.187 16.1233 45.2228 12.8964 50.8627 12.8964C54.5364 12.8964 56.5026 13.2101 57.6926 13.7031V17.5574C57.6926 17.8263 57.6926 18.0056 57.6926 18.0056C57.6409 18.0056 57.5374 18.0056 57.5374 18.0056C55.7782 16.6163 54.0707 15.5406 49.9831 15.5406C46.7751 15.5406 44.6537 17.8263 45.3781 21.7703H63.5395C64.2639 21.6807 65.04 21.6359 65.8161 21.6359C72.2839 21.6359 77.872 25.3109 80.4074 30.6443C80.4074 30.3306 80.3556 30.0616 80.3556 29.7031C80.3556 24.1457 86.5647 21.8151 92.9807 21.8151C93.2394 21.8151 93.4464 21.8151 93.7051 21.8151C95.9817 21.7703 99.1897 22.4426 101.156 22.8908L102.967 26.7003L104.985 31.0028L110.469 42.521L111.09 44.3586L111.815 42.521L118.696 27.7311C119.99 23.6527 125.009 21.9048 130.597 21.9048C133.391 21.9048 135.409 22.1737 137.841 22.9356V27.4174C134.84 25.535 132.667 24.4146 129.252 24.4146C126.251 24.4146 122.629 25.5798 122.629 29.3894C122.577 32.2577 124.595 32.7955 130.442 35.3053C135.254 37.0981 139.704 39.1149 139.755 43.7311C139.755 51.4398 130.959 52.7844 126.665 52.7844C122.836 52.7844 119.369 51.9776 117.403 50.5883V45.5238L117.713 45.7479C121.18 48.5715 124.233 50.0056 128.217 50.0056C132.149 50.0505 135.616 48.3922 135.616 45.2101C135.616 42.5659 132.874 40.9972 128.01 39.2045C123.353 37.4566 120.3 36.2913 119.059 33.423C117.144 37.4118 108.348 56.0112 106.278 60H101.518L102.656 58.1625L103.64 56.5491L103.691 56.5042C104.881 54.4874 106.641 51.3054 108.141 48.2129L98.9827 29.0756C98.931 28.9412 98.7758 28.6723 98.4653 28.0448C97.7409 26.6555 97.12 25.4006 95.1538 24.7283C94.119 24.4146 92.9807 24.2801 91.6354 24.2801C88.6344 24.2801 84.7537 25.4454 84.7537 29.2549C84.702 32.1233 86.9269 32.6611 92.7737 35.1709C97.5857 36.9636 102.036 38.9804 102.087 43.5967C102.087 51.3054 93.2911 52.6499 88.9965 52.6499C85.5816 52.6499 82.4771 52.0224 80.4074 50.8572V45.972H80.5109Z" fill="#007CC3"/>
<path d="M15.3677 22.084L15.4194 25.4454V25.6695H15.4712C15.5229 25.535 15.6264 25.4006 15.6781 25.3109C17.6443 23.4734 20.1279 21.6807 26.0265 21.6807C31.6664 21.6807 35.3401 25.8487 35.4953 28.4482V46.958V47.0476V51.6191H30.6316V46.1065V30.3305C30.6316 27.0588 27.3201 24.7283 23.2842 24.7283C19.921 24.7283 15.5747 27.3277 15.4712 30.0168V47.0028V47.1373V51.7087H10.6074V47.0028V25.9832V22.084H11.487H14.1259H15.3677Z" fill="#007CC3"/>
</svg>
